<?xml version="1.0" standalone="no"?>
<!DOCTYPE svg PUBLIC "-//W3C//DTD SVG 20010904//EN"
 "http://www.w3.org/TR/2001/REC-SVG-20010904/DTD/svg10.dtd">
<svg version="1.0" xmlns="http://www.w3.org/2000/svg"
 width="256.000000pt" height="256.000000pt" viewBox="0 0 256.000000 256.000000"
 preserveAspectRatio="xMidYMid meet">

<g transform="translate(0.000000,256.000000) scale(0.100000,-0.100000)"
fill="#000000" stroke="none">
<path d="M1190 1581 c-84 -26 -140 -74 -182 -155 -27 -51 -30 -162 -6 -217 43
-100 148 -169 256 -169 60 0 132 20 132 37 -1 9 -80 151 -80 142 0 -3 11 -34
25 -69 14 -35 25 -65 25 -66 0 -6 -76 -24 -101 -24 -89 0 -191 68 -230 153
-20 46 -24 122 -9 178 14 49 80 122 133 148 78 38 202 24 268 -31 33 -28 78
-101 84 -138 8 -47 25 -53 25 -10 0 45 -43 123 -90 162 -65 56 -174 82 -250
59z"/>
<path d="M1261 1477 c-24 -29 17 -70 46 -46 8 7 13 22 11 33 -4 25 -40 33 -57
13z"/>
<path d="M303 1455 c-18 -8 -33 -19 -33 -26 0 -8 4 -8 15 1 9 7 17 11 19 9 4
-4 -46 -200 -60 -233 -5 -14 -3 -18 7 -14 16 5 40 80 60 188 13 67 17 75 39
78 28 4 50 -20 50 -55 0 -27 -55 -93 -79 -94 -9 0 -11 -3 -4 -5 20 -9 72 25
88 56 43 84 -11 135 -102 95z"/>
<path d="M1653 1435 c-35 -15 -46 -36 -14 -28 17 4 17 -2 -9 -99 -16 -56 -32
-111 -36 -122 -5 -14 -3 -17 7 -14 8 2 20 24 28 49 8 24 18 47 24 50 6 4 6 9
0 12 -16 10 17 146 37 152 71 22 76 -90 7 -134 -18 -11 -25 -21 -17 -21 24 0
58 28 75 60 42 82 -13 134 -102 95z"/>
<path d="M470 1424 c0 -8 5 -12 10 -9 6 4 8 11 5 16 -9 14 -15 11 -15 -7z"/>
<path d="M1110 1426 c-27 -33 18 -72 48 -42 13 13 14 20 6 34 -15 23 -38 26
-54 8z"/>
<path d="M1810 1408 c0 -13 -9 -57 -20 -98 -22 -85 -23 -90 -12 -90 5 0 19 42
32 93 13 50 25 98 28 105 2 6 -3 12 -12 12 -10 0 -16 -9 -16 -22z"/>
<path d="M1360 1396 c-27 -33 18 -72 48 -42 13 13 14 20 6 34 -15 23 -38 26
-54 8z"/>
<path d="M829 1343 c-38 -43 -51 -79 -33 -94 11 -9 20 -9 42 0 18 9 28 9 30 2
6 -18 28 -13 48 12 19 22 19 22 -2 5 -31 -27 -37 -22 -32 26 5 42 -4 76 -21
76 -4 0 -19 -12 -32 -27z m39 -21 c5 -30 -15 -62 -38 -62 -24 0 -25 20 -4 61
17 33 37 34 42 1z"/>
<path d="M446 1351 c-4 -5 -9 -30 -12 -55 -9 -63 15 -73 59 -25 l32 34 -33
-30 c-43 -38 -58 -25 -37 34 8 24 15 45 15 47 0 8 -19 4 -24 -5z"/>
<path d="M550 1349 c0 -7 11 -8 30 -4 39 9 38 -5 -1 -50 -32 -36 -34 -50 -8
-40 8 3 21 20 29 38 7 17 17 40 21 50 7 15 3 17 -31 17 -22 0 -40 -5 -40 -11z"/>
<path d="M690 1349 c0 -7 11 -8 30 -4 17 4 30 3 30 -2 0 -12 -31 -56 -50 -70
-17 -13 -10 -26 11 -18 12 5 59 85 59 100 0 3 -18 5 -40 5 -22 0 -40 -5 -40
-11z"/>
<path d="M1866 1309 c-31 -36 -36 -89 -8 -89 9 0 23 4 31 9 9 6 21 5 32 -2 14
-9 22 -7 36 6 18 15 19 15 31 -3 13 -21 47 -27 57 -10 3 6 -5 10 -18 10 -32 0
-40 23 -22 66 13 32 51 51 39 19 -4 -8 -1 -15 5 -15 6 0 11 9 11 20 0 15 -7
20 -24 20 -26 0 -56 -33 -56 -61 0 -9 -9 -24 -20 -34 -27 -24 -42 -9 -32 30
18 68 -17 87 -62 34z m49 11 c11 -18 -6 -70 -26 -81 -28 -15 -36 14 -16 57 17
34 31 42 42 24z"/>
<path d="M2122 1317 c-12 -13 -22 -27 -22 -32 0 -5 -10 -20 -22 -34 -14 -15
-16 -20 -5 -12 16 12 20 12 33 -7 17 -25 33 -27 59 -9 16 13 15 14 -13 9 -42
-6 -43 20 -2 55 17 13 30 31 30 39 0 22 -34 17 -58 -9z m38 -1 c0 -16 -28 -42
-36 -33 -8 7 14 47 26 47 6 0 10 -6 10 -14z"/>
<path d="M600 1261 c0 -11 -9 -22 -19 -26 -11 -3 -34 -22 -51 -41 -38 -44 -37
-78 3 -82 25 -3 30 2 53 55 14 32 29 65 33 73 5 9 3 20 -5 28 -12 11 -14 9
-14 -7z m-15 -68 c-28 -67 -65 -91 -65 -42 0 22 51 79 69 79 7 0 6 -13 -4 -37z"/>
<path d="M743 1268 c4 -12 -1 -21 -16 -29 -78 -40 -114 -129 -52 -129 26 0 58
44 71 95 4 17 11 35 16 41 5 7 2 17 -9 25 -15 12 -16 12 -10 -3z m-3 -43 c0
-11 -32 -70 -48 -87 -8 -10 -19 -15 -23 -12 -18 11 -8 43 22 73 28 28 49 39
49 26z"/>
<path d="M1094 1265 c-9 -23 3 -45 26 -45 25 0 37 25 20 45 -16 19 -39 19 -46
0z"/>
<path d="M2199 1253 c-13 -16 -12 -17 4 -4 16 13 21 21 13 21 -2 0 -10 -8 -17
-17z"/>
<path d="M1414 1216 c-10 -26 4 -48 28 -44 17 2 23 10 23 28 0 18 -6 26 -23
28 -13 2 -25 -3 -28 -12z"/>
<path d="M1195 1190 c-10 -17 5 -50 24 -50 27 0 42 20 30 42 -10 19 -44 24
-54 8z"/>
</g>
</svg>
